<mxfile host="app.diagrams.net" modified="2023-06-06T11:49:40.700Z" agent="Mozilla/5.0 (Windows NT 10.0; Win64; x64) AppleWebKit/537.36 (KHTML, like Gecko) Chrome/113.0.0.0 Safari/537.36" etag="QuSev29KCjL08yXFXbEu" version="21.3.5" type="device">
  <diagram name="Страница 1" id="0tH2iIy0y6fC6xE-NnWN">
    <mxGraphModel dx="1034" dy="488" grid="1" gridSize="10" guides="1" tooltips="1" connect="1" arrows="1" fold="1" page="1" pageScale="1" pageWidth="827" pageHeight="1169" math="0" shadow="0">
      <root>
        <mxCell id="0" />
        <mxCell id="1" parent="0" />
        <mxCell id="bcBHPsa9riKOSC_5PZo1-41" value="" style="fontColor=#0066CC;verticalAlign=top;verticalLabelPosition=bottom;labelPosition=center;align=center;html=1;outlineConnect=0;fillColor=#CCCCCC;strokeColor=#6881B3;gradientColor=none;gradientDirection=north;strokeWidth=2;shape=mxgraph.networks.server;" parent="1" vertex="1">
          <mxGeometry x="635" y="280" width="70" height="70" as="geometry" />
        </mxCell>
        <mxCell id="bcBHPsa9riKOSC_5PZo1-40" value="" style="fontColor=#0066CC;verticalAlign=top;verticalLabelPosition=bottom;labelPosition=center;align=center;html=1;outlineConnect=0;fillColor=#CCCCCC;strokeColor=#6881B3;gradientColor=none;gradientDirection=north;strokeWidth=2;shape=mxgraph.networks.server;" parent="1" vertex="1">
          <mxGeometry x="230" y="790" width="70" height="70" as="geometry" />
        </mxCell>
        <mxCell id="bcBHPsa9riKOSC_5PZo1-1" value="" style="fontColor=#0066CC;verticalAlign=top;verticalLabelPosition=bottom;labelPosition=center;align=center;html=1;outlineConnect=0;fillColor=#CCCCCC;strokeColor=#6881B3;gradientColor=none;gradientDirection=north;strokeWidth=2;shape=mxgraph.networks.monitor;" parent="1" vertex="1">
          <mxGeometry x="50" y="125" width="80" height="65" as="geometry" />
        </mxCell>
        <mxCell id="bcBHPsa9riKOSC_5PZo1-2" value="" style="fontColor=#0066CC;verticalAlign=top;verticalLabelPosition=bottom;labelPosition=center;align=center;html=1;outlineConnect=0;fillColor=#CCCCCC;strokeColor=#6881B3;gradientColor=none;gradientDirection=north;strokeWidth=2;shape=mxgraph.networks.monitor;" parent="1" vertex="1">
          <mxGeometry x="240" y="125" width="80" height="65" as="geometry" />
        </mxCell>
        <mxCell id="bcBHPsa9riKOSC_5PZo1-3" value="" style="fontColor=#0066CC;verticalAlign=top;verticalLabelPosition=bottom;labelPosition=center;align=center;html=1;outlineConnect=0;fillColor=#CCCCCC;strokeColor=#6881B3;gradientColor=none;gradientDirection=north;strokeWidth=2;shape=mxgraph.networks.monitor;" parent="1" vertex="1">
          <mxGeometry x="145" y="60" width="80" height="65" as="geometry" />
        </mxCell>
        <mxCell id="bcBHPsa9riKOSC_5PZo1-4" value="" style="fontColor=#0066CC;verticalAlign=top;verticalLabelPosition=bottom;labelPosition=center;align=center;html=1;outlineConnect=0;fillColor=#CCCCCC;strokeColor=#6881B3;gradientColor=none;gradientDirection=north;strokeWidth=2;shape=mxgraph.networks.server;" parent="1" vertex="1">
          <mxGeometry x="140" y="270" width="90" height="100" as="geometry" />
        </mxCell>
        <mxCell id="bcBHPsa9riKOSC_5PZo1-6" value="" style="fontColor=#0066CC;verticalAlign=top;verticalLabelPosition=bottom;labelPosition=center;align=center;html=1;outlineConnect=0;fillColor=#CCCCCC;strokeColor=#6881B3;gradientColor=none;gradientDirection=north;strokeWidth=2;shape=mxgraph.networks.storage;" parent="1" vertex="1">
          <mxGeometry x="110" y="330" width="60" height="70" as="geometry" />
        </mxCell>
        <mxCell id="bcBHPsa9riKOSC_5PZo1-10" value="Рабочие станции с клиентским ПО" style="text;html=1;align=center;verticalAlign=middle;resizable=0;points=[];autosize=1;strokeColor=none;fillColor=none;" parent="1" vertex="1">
          <mxGeometry x="75" y="30" width="220" height="30" as="geometry" />
        </mxCell>
        <mxCell id="bcBHPsa9riKOSC_5PZo1-11" value="Файловый сервер, база данных" style="text;html=1;align=center;verticalAlign=middle;resizable=0;points=[];autosize=1;strokeColor=none;fillColor=none;" parent="1" vertex="1">
          <mxGeometry x="85" y="400" width="200" height="30" as="geometry" />
        </mxCell>
        <mxCell id="bcBHPsa9riKOSC_5PZo1-12" value="" style="fontColor=#0066CC;verticalAlign=top;verticalLabelPosition=bottom;labelPosition=center;align=center;html=1;outlineConnect=0;fillColor=#CCCCCC;strokeColor=#6881B3;gradientColor=none;gradientDirection=north;strokeWidth=2;shape=mxgraph.networks.monitor;" parent="1" vertex="1">
          <mxGeometry x="470" y="125" width="80" height="65" as="geometry" />
        </mxCell>
        <mxCell id="bcBHPsa9riKOSC_5PZo1-13" value="" style="fontColor=#0066CC;verticalAlign=top;verticalLabelPosition=bottom;labelPosition=center;align=center;html=1;outlineConnect=0;fillColor=#CCCCCC;strokeColor=#6881B3;gradientColor=none;gradientDirection=north;strokeWidth=2;shape=mxgraph.networks.monitor;" parent="1" vertex="1">
          <mxGeometry x="700" y="125" width="80" height="65" as="geometry" />
        </mxCell>
        <mxCell id="bcBHPsa9riKOSC_5PZo1-14" value="" style="fontColor=#0066CC;verticalAlign=top;verticalLabelPosition=bottom;labelPosition=center;align=center;html=1;outlineConnect=0;fillColor=#CCCCCC;strokeColor=#6881B3;gradientColor=none;gradientDirection=north;strokeWidth=2;shape=mxgraph.networks.monitor;" parent="1" vertex="1">
          <mxGeometry x="585" y="60" width="80" height="65" as="geometry" />
        </mxCell>
        <mxCell id="bcBHPsa9riKOSC_5PZo1-17" value="" style="endArrow=classic;startArrow=classic;html=1;rounded=0;" parent="1" target="bcBHPsa9riKOSC_5PZo1-14" edge="1">
          <mxGeometry width="50" height="50" relative="1" as="geometry">
            <mxPoint x="625" y="270" as="sourcePoint" />
            <mxPoint x="800" y="220" as="targetPoint" />
          </mxGeometry>
        </mxCell>
        <mxCell id="bcBHPsa9riKOSC_5PZo1-18" value="" style="endArrow=classic;html=1;rounded=0;" parent="1" target="bcBHPsa9riKOSC_5PZo1-12" edge="1">
          <mxGeometry width="50" height="50" relative="1" as="geometry">
            <mxPoint x="625" y="270" as="sourcePoint" />
            <mxPoint x="800" y="220" as="targetPoint" />
            <Array as="points">
              <mxPoint x="620" y="200" />
            </Array>
          </mxGeometry>
        </mxCell>
        <mxCell id="bcBHPsa9riKOSC_5PZo1-19" value="" style="endArrow=classic;html=1;rounded=0;" parent="1" target="bcBHPsa9riKOSC_5PZo1-13" edge="1">
          <mxGeometry width="50" height="50" relative="1" as="geometry">
            <mxPoint x="625" y="270" as="sourcePoint" />
            <mxPoint x="800" y="220" as="targetPoint" />
            <Array as="points">
              <mxPoint x="630" y="200" />
            </Array>
          </mxGeometry>
        </mxCell>
        <mxCell id="bcBHPsa9riKOSC_5PZo1-20" value="Рабочие станции с клиентским ПО" style="text;html=1;align=center;verticalAlign=middle;resizable=0;points=[];autosize=1;strokeColor=none;fillColor=none;" parent="1" vertex="1">
          <mxGeometry x="515" y="30" width="220" height="30" as="geometry" />
        </mxCell>
        <mxCell id="bcBHPsa9riKOSC_5PZo1-21" value="Сервер приложений с базами данных" style="text;html=1;align=center;verticalAlign=middle;resizable=0;points=[];autosize=1;strokeColor=none;fillColor=none;" parent="1" vertex="1">
          <mxGeometry x="520" y="360" width="230" height="30" as="geometry" />
        </mxCell>
        <mxCell id="bcBHPsa9riKOSC_5PZo1-22" value="" style="fontColor=#0066CC;verticalAlign=top;verticalLabelPosition=bottom;labelPosition=center;align=center;html=1;outlineConnect=0;fillColor=#CCCCCC;strokeColor=#6881B3;gradientColor=none;gradientDirection=north;strokeWidth=2;shape=mxgraph.networks.pc;" parent="1" vertex="1">
          <mxGeometry x="567" y="280" width="103" height="77.5" as="geometry" />
        </mxCell>
        <mxCell id="bcBHPsa9riKOSC_5PZo1-16" value="" style="fontColor=#0066CC;verticalAlign=top;verticalLabelPosition=bottom;labelPosition=center;align=center;html=1;outlineConnect=0;fillColor=#CCCCCC;strokeColor=#6881B3;gradientColor=none;gradientDirection=north;strokeWidth=2;shape=mxgraph.networks.storage;" parent="1" vertex="1">
          <mxGeometry x="650" y="320" width="40" height="45" as="geometry" />
        </mxCell>
        <mxCell id="bcBHPsa9riKOSC_5PZo1-27" value="" style="fontColor=#0066CC;verticalAlign=top;verticalLabelPosition=bottom;labelPosition=center;align=center;html=1;outlineConnect=0;fillColor=#CCCCCC;strokeColor=#6881B3;gradientColor=none;gradientDirection=north;strokeWidth=2;shape=mxgraph.networks.monitor;" parent="1" vertex="1">
          <mxGeometry x="60" y="635" width="80" height="65" as="geometry" />
        </mxCell>
        <mxCell id="bcBHPsa9riKOSC_5PZo1-28" value="" style="fontColor=#0066CC;verticalAlign=top;verticalLabelPosition=bottom;labelPosition=center;align=center;html=1;outlineConnect=0;fillColor=#CCCCCC;strokeColor=#6881B3;gradientColor=none;gradientDirection=north;strokeWidth=2;shape=mxgraph.networks.monitor;" parent="1" vertex="1">
          <mxGeometry x="290" y="635" width="80" height="65" as="geometry" />
        </mxCell>
        <mxCell id="bcBHPsa9riKOSC_5PZo1-29" value="" style="fontColor=#0066CC;verticalAlign=top;verticalLabelPosition=bottom;labelPosition=center;align=center;html=1;outlineConnect=0;fillColor=#CCCCCC;strokeColor=#6881B3;gradientColor=none;gradientDirection=north;strokeWidth=2;shape=mxgraph.networks.monitor;" parent="1" vertex="1">
          <mxGeometry x="175" y="570" width="80" height="65" as="geometry" />
        </mxCell>
        <mxCell id="bcBHPsa9riKOSC_5PZo1-30" value="" style="endArrow=classic;startArrow=classic;html=1;rounded=0;" parent="1" target="bcBHPsa9riKOSC_5PZo1-29" edge="1">
          <mxGeometry width="50" height="50" relative="1" as="geometry">
            <mxPoint x="215" y="780" as="sourcePoint" />
            <mxPoint x="390" y="730" as="targetPoint" />
          </mxGeometry>
        </mxCell>
        <mxCell id="bcBHPsa9riKOSC_5PZo1-31" value="" style="endArrow=classic;html=1;rounded=0;" parent="1" target="bcBHPsa9riKOSC_5PZo1-27" edge="1">
          <mxGeometry width="50" height="50" relative="1" as="geometry">
            <mxPoint x="215" y="780" as="sourcePoint" />
            <mxPoint x="390" y="730" as="targetPoint" />
            <Array as="points">
              <mxPoint x="210" y="710" />
            </Array>
          </mxGeometry>
        </mxCell>
        <mxCell id="bcBHPsa9riKOSC_5PZo1-32" value="" style="endArrow=classic;html=1;rounded=0;" parent="1" target="bcBHPsa9riKOSC_5PZo1-28" edge="1">
          <mxGeometry width="50" height="50" relative="1" as="geometry">
            <mxPoint x="215" y="780" as="sourcePoint" />
            <mxPoint x="390" y="730" as="targetPoint" />
            <Array as="points">
              <mxPoint x="220" y="710" />
            </Array>
          </mxGeometry>
        </mxCell>
        <mxCell id="bcBHPsa9riKOSC_5PZo1-33" value="Рабочие станции с клиентским ПО" style="text;html=1;align=center;verticalAlign=middle;resizable=0;points=[];autosize=1;strokeColor=none;fillColor=none;" parent="1" vertex="1">
          <mxGeometry x="105" y="540" width="220" height="30" as="geometry" />
        </mxCell>
        <mxCell id="bcBHPsa9riKOSC_5PZo1-34" value="Сервер приложений" style="text;html=1;align=center;verticalAlign=middle;resizable=0;points=[];autosize=1;strokeColor=none;fillColor=none;" parent="1" vertex="1">
          <mxGeometry x="155" y="875" width="140" height="30" as="geometry" />
        </mxCell>
        <mxCell id="bcBHPsa9riKOSC_5PZo1-35" value="" style="fontColor=#0066CC;verticalAlign=top;verticalLabelPosition=bottom;labelPosition=center;align=center;html=1;outlineConnect=0;fillColor=#CCCCCC;strokeColor=#6881B3;gradientColor=none;gradientDirection=north;strokeWidth=2;shape=mxgraph.networks.pc;" parent="1" vertex="1">
          <mxGeometry x="157" y="790" width="103" height="77.5" as="geometry" />
        </mxCell>
        <mxCell id="bcBHPsa9riKOSC_5PZo1-36" value="" style="fontColor=#0066CC;verticalAlign=top;verticalLabelPosition=bottom;labelPosition=center;align=center;html=1;outlineConnect=0;fillColor=#CCCCCC;strokeColor=#6881B3;gradientColor=none;gradientDirection=north;strokeWidth=2;shape=mxgraph.networks.server;" parent="1" vertex="1">
          <mxGeometry x="180" y="970" width="90" height="100" as="geometry" />
        </mxCell>
        <mxCell id="bcBHPsa9riKOSC_5PZo1-37" value="" style="fontColor=#0066CC;verticalAlign=top;verticalLabelPosition=bottom;labelPosition=center;align=center;html=1;outlineConnect=0;fillColor=#CCCCCC;strokeColor=#6881B3;gradientColor=none;gradientDirection=north;strokeWidth=2;shape=mxgraph.networks.storage;" parent="1" vertex="1">
          <mxGeometry x="160" y="1020" width="50" height="60" as="geometry" />
        </mxCell>
        <mxCell id="bcBHPsa9riKOSC_5PZo1-38" value="Файловый сервер, база данных, сервер БД" style="text;html=1;align=center;verticalAlign=middle;resizable=0;points=[];autosize=1;strokeColor=none;fillColor=none;" parent="1" vertex="1">
          <mxGeometry x="90" y="1080" width="270" height="30" as="geometry" />
        </mxCell>
        <mxCell id="bcBHPsa9riKOSC_5PZo1-39" value="" style="endArrow=classic;startArrow=classic;html=1;rounded=0;" parent="1" source="bcBHPsa9riKOSC_5PZo1-36" target="bcBHPsa9riKOSC_5PZo1-34" edge="1">
          <mxGeometry width="50" height="50" relative="1" as="geometry">
            <mxPoint x="60" y="920" as="sourcePoint" />
            <mxPoint x="110" y="870" as="targetPoint" />
          </mxGeometry>
        </mxCell>
        <mxCell id="bcBHPsa9riKOSC_5PZo1-42" value="" style="fontColor=#0066CC;verticalAlign=top;verticalLabelPosition=bottom;labelPosition=center;align=center;html=1;outlineConnect=0;fillColor=#CCCCCC;strokeColor=#6881B3;gradientColor=none;gradientDirection=north;strokeWidth=2;shape=mxgraph.networks.server;" parent="1" vertex="1">
          <mxGeometry x="1020" y="780" width="70" height="70" as="geometry" />
        </mxCell>
        <mxCell id="bcBHPsa9riKOSC_5PZo1-43" value="" style="fontColor=#0066CC;verticalAlign=top;verticalLabelPosition=bottom;labelPosition=center;align=center;html=1;outlineConnect=0;fillColor=#CCCCCC;strokeColor=#6881B3;gradientColor=none;gradientDirection=north;strokeWidth=2;shape=mxgraph.networks.monitor;" parent="1" vertex="1">
          <mxGeometry x="850" y="625" width="80" height="65" as="geometry" />
        </mxCell>
        <mxCell id="bcBHPsa9riKOSC_5PZo1-44" value="" style="fontColor=#0066CC;verticalAlign=top;verticalLabelPosition=bottom;labelPosition=center;align=center;html=1;outlineConnect=0;fillColor=#CCCCCC;strokeColor=#6881B3;gradientColor=none;gradientDirection=north;strokeWidth=2;shape=mxgraph.networks.monitor;" parent="1" vertex="1">
          <mxGeometry x="1080" y="625" width="80" height="65" as="geometry" />
        </mxCell>
        <mxCell id="bcBHPsa9riKOSC_5PZo1-45" value="" style="fontColor=#0066CC;verticalAlign=top;verticalLabelPosition=bottom;labelPosition=center;align=center;html=1;outlineConnect=0;fillColor=#CCCCCC;strokeColor=#6881B3;gradientColor=none;gradientDirection=north;strokeWidth=2;shape=mxgraph.networks.monitor;" parent="1" vertex="1">
          <mxGeometry x="965" y="560" width="80" height="65" as="geometry" />
        </mxCell>
        <mxCell id="bcBHPsa9riKOSC_5PZo1-46" value="" style="endArrow=classic;startArrow=classic;html=1;rounded=0;" parent="1" target="bcBHPsa9riKOSC_5PZo1-45" edge="1">
          <mxGeometry width="50" height="50" relative="1" as="geometry">
            <mxPoint x="1005" y="770" as="sourcePoint" />
            <mxPoint x="1180" y="720" as="targetPoint" />
          </mxGeometry>
        </mxCell>
        <mxCell id="bcBHPsa9riKOSC_5PZo1-47" value="" style="endArrow=classic;html=1;rounded=0;" parent="1" target="bcBHPsa9riKOSC_5PZo1-43" edge="1">
          <mxGeometry width="50" height="50" relative="1" as="geometry">
            <mxPoint x="1005" y="770" as="sourcePoint" />
            <mxPoint x="1180" y="720" as="targetPoint" />
            <Array as="points">
              <mxPoint x="1000" y="700" />
            </Array>
          </mxGeometry>
        </mxCell>
        <mxCell id="bcBHPsa9riKOSC_5PZo1-48" value="" style="endArrow=classic;html=1;rounded=0;" parent="1" target="bcBHPsa9riKOSC_5PZo1-44" edge="1">
          <mxGeometry width="50" height="50" relative="1" as="geometry">
            <mxPoint x="1005" y="770" as="sourcePoint" />
            <mxPoint x="1180" y="720" as="targetPoint" />
            <Array as="points">
              <mxPoint x="1010" y="700" />
            </Array>
          </mxGeometry>
        </mxCell>
        <mxCell id="bcBHPsa9riKOSC_5PZo1-49" value="Рабочие станции с клиентским ПО" style="text;html=1;align=center;verticalAlign=middle;resizable=0;points=[];autosize=1;strokeColor=none;fillColor=none;" parent="1" vertex="1">
          <mxGeometry x="895" y="530" width="220" height="30" as="geometry" />
        </mxCell>
        <mxCell id="bcBHPsa9riKOSC_5PZo1-50" value="Сервер приложений 1" style="text;html=1;align=center;verticalAlign=middle;resizable=0;points=[];autosize=1;strokeColor=none;fillColor=none;" parent="1" vertex="1">
          <mxGeometry x="940" y="853.75" width="150" height="30" as="geometry" />
        </mxCell>
        <mxCell id="bcBHPsa9riKOSC_5PZo1-51" value="" style="fontColor=#0066CC;verticalAlign=top;verticalLabelPosition=bottom;labelPosition=center;align=center;html=1;outlineConnect=0;fillColor=#CCCCCC;strokeColor=#6881B3;gradientColor=none;gradientDirection=north;strokeWidth=2;shape=mxgraph.networks.pc;" parent="1" vertex="1">
          <mxGeometry x="947" y="780" width="103" height="77.5" as="geometry" />
        </mxCell>
        <mxCell id="bcBHPsa9riKOSC_5PZo1-52" value="" style="fontColor=#0066CC;verticalAlign=top;verticalLabelPosition=bottom;labelPosition=center;align=center;html=1;outlineConnect=0;fillColor=#CCCCCC;strokeColor=#6881B3;gradientColor=none;gradientDirection=north;strokeWidth=2;shape=mxgraph.networks.server;" parent="1" vertex="1">
          <mxGeometry x="1171" y="960" width="90" height="100" as="geometry" />
        </mxCell>
        <mxCell id="bcBHPsa9riKOSC_5PZo1-53" value="" style="fontColor=#0066CC;verticalAlign=top;verticalLabelPosition=bottom;labelPosition=center;align=center;html=1;outlineConnect=0;fillColor=#CCCCCC;strokeColor=#6881B3;gradientColor=none;gradientDirection=north;strokeWidth=2;shape=mxgraph.networks.storage;" parent="1" vertex="1">
          <mxGeometry x="1151" y="1010" width="50" height="60" as="geometry" />
        </mxCell>
        <mxCell id="bcBHPsa9riKOSC_5PZo1-54" value="Файловый сервер, база данных, сервер БД" style="text;html=1;align=center;verticalAlign=middle;resizable=0;points=[];autosize=1;strokeColor=none;fillColor=none;" parent="1" vertex="1">
          <mxGeometry x="1081" y="1070" width="270" height="30" as="geometry" />
        </mxCell>
        <mxCell id="bcBHPsa9riKOSC_5PZo1-55" value="" style="endArrow=classic;startArrow=classic;html=1;rounded=0;" parent="1" source="bcBHPsa9riKOSC_5PZo1-52" target="bcBHPsa9riKOSC_5PZo1-50" edge="1">
          <mxGeometry width="50" height="50" relative="1" as="geometry">
            <mxPoint x="850" y="910" as="sourcePoint" />
            <mxPoint x="900" y="860" as="targetPoint" />
            <Array as="points">
              <mxPoint x="1180" y="920" />
            </Array>
          </mxGeometry>
        </mxCell>
        <mxCell id="bcBHPsa9riKOSC_5PZo1-56" value="" style="fontColor=#0066CC;verticalAlign=top;verticalLabelPosition=bottom;labelPosition=center;align=center;html=1;outlineConnect=0;fillColor=#CCCCCC;strokeColor=#6881B3;gradientColor=none;gradientDirection=north;strokeWidth=2;shape=mxgraph.networks.server;" parent="1" vertex="1">
          <mxGeometry x="1181" y="780" width="70" height="70" as="geometry" />
        </mxCell>
        <mxCell id="bcBHPsa9riKOSC_5PZo1-57" value="" style="fontColor=#0066CC;verticalAlign=top;verticalLabelPosition=bottom;labelPosition=center;align=center;html=1;outlineConnect=0;fillColor=#CCCCCC;strokeColor=#6881B3;gradientColor=none;gradientDirection=north;strokeWidth=2;shape=mxgraph.networks.desktop_pc;" parent="1" vertex="1">
          <mxGeometry x="1160" y="800" width="30" height="60" as="geometry" />
        </mxCell>
        <mxCell id="bcBHPsa9riKOSC_5PZo1-58" value="Сервер приложений 2" style="text;html=1;align=center;verticalAlign=middle;resizable=0;points=[];autosize=1;strokeColor=none;fillColor=none;" parent="1" vertex="1">
          <mxGeometry x="1140" y="853.75" width="150" height="30" as="geometry" />
        </mxCell>
        <mxCell id="bcBHPsa9riKOSC_5PZo1-59" value="" style="fontColor=#0066CC;verticalAlign=top;verticalLabelPosition=bottom;labelPosition=center;align=center;html=1;outlineConnect=0;fillColor=#CCCCCC;strokeColor=#6881B3;gradientColor=none;gradientDirection=north;strokeWidth=2;shape=mxgraph.networks.server;" parent="1" vertex="1">
          <mxGeometry x="1400" y="776.25" width="70" height="70" as="geometry" />
        </mxCell>
        <mxCell id="bcBHPsa9riKOSC_5PZo1-60" value="" style="fontColor=#0066CC;verticalAlign=top;verticalLabelPosition=bottom;labelPosition=center;align=center;html=1;outlineConnect=0;fillColor=#CCCCCC;strokeColor=#6881B3;gradientColor=none;gradientDirection=north;strokeWidth=2;shape=mxgraph.networks.desktop_pc;" parent="1" vertex="1">
          <mxGeometry x="1379" y="796.25" width="30" height="60" as="geometry" />
        </mxCell>
        <mxCell id="bcBHPsa9riKOSC_5PZo1-61" value="Сервер приложений N" style="text;html=1;align=center;verticalAlign=middle;resizable=0;points=[];autosize=1;strokeColor=none;fillColor=none;" parent="1" vertex="1">
          <mxGeometry x="1360" y="853.75" width="150" height="30" as="geometry" />
        </mxCell>
        <mxCell id="bcBHPsa9riKOSC_5PZo1-64" value="" style="endArrow=classic;startArrow=classic;html=1;rounded=0;" parent="1" edge="1">
          <mxGeometry width="50" height="50" relative="1" as="geometry">
            <mxPoint x="1100" y="815" as="sourcePoint" />
            <mxPoint x="1150" y="815" as="targetPoint" />
          </mxGeometry>
        </mxCell>
        <mxCell id="bcBHPsa9riKOSC_5PZo1-65" value="" style="endArrow=classic;startArrow=classic;html=1;rounded=0;" parent="1" source="bcBHPsa9riKOSC_5PZo1-42" target="bcBHPsa9riKOSC_5PZo1-59" edge="1">
          <mxGeometry width="50" height="50" relative="1" as="geometry">
            <mxPoint x="1045" y="770" as="sourcePoint" />
            <mxPoint x="1405" y="770" as="targetPoint" />
            <Array as="points">
              <mxPoint x="1070" y="740" />
              <mxPoint x="1405" y="740" />
            </Array>
          </mxGeometry>
        </mxCell>
        <mxCell id="bcBHPsa9riKOSC_5PZo1-66" value="" style="endArrow=classic;startArrow=classic;html=1;rounded=0;entryX=0.5;entryY=0;entryDx=0;entryDy=0;entryPerimeter=0;" parent="1" source="bcBHPsa9riKOSC_5PZo1-58" target="bcBHPsa9riKOSC_5PZo1-52" edge="1">
          <mxGeometry width="50" height="50" relative="1" as="geometry">
            <mxPoint x="1200" y="895" as="sourcePoint" />
            <mxPoint x="1250" y="895" as="targetPoint" />
          </mxGeometry>
        </mxCell>
        <mxCell id="bcBHPsa9riKOSC_5PZo1-67" value="" style="endArrow=classic;startArrow=classic;html=1;rounded=0;" parent="1" source="bcBHPsa9riKOSC_5PZo1-52" target="bcBHPsa9riKOSC_5PZo1-61" edge="1">
          <mxGeometry width="50" height="50" relative="1" as="geometry">
            <mxPoint x="1130" y="845" as="sourcePoint" />
            <mxPoint x="1180" y="845" as="targetPoint" />
            <Array as="points">
              <mxPoint x="1250" y="920" />
            </Array>
          </mxGeometry>
        </mxCell>
        <mxCell id="bcBHPsa9riKOSC_5PZo1-68" value="" style="endArrow=classic;html=1;rounded=0;" parent="1" edge="1">
          <mxGeometry relative="1" as="geometry">
            <mxPoint x="1270" y="814.76" as="sourcePoint" />
            <mxPoint x="1370" y="815" as="targetPoint" />
          </mxGeometry>
        </mxCell>
        <mxCell id="bcBHPsa9riKOSC_5PZo1-69" value="..." style="edgeLabel;resizable=0;html=1;align=center;verticalAlign=middle;" parent="bcBHPsa9riKOSC_5PZo1-68" connectable="0" vertex="1">
          <mxGeometry relative="1" as="geometry" />
        </mxCell>
        <mxCell id="bcBHPsa9riKOSC_5PZo1-70" value="" style="endArrow=classic;html=1;rounded=0;" parent="1" edge="1">
          <mxGeometry width="50" height="50" relative="1" as="geometry">
            <mxPoint x="1301" y="814.76" as="sourcePoint" />
            <mxPoint x="1261" y="814.76" as="targetPoint" />
          </mxGeometry>
        </mxCell>
        <mxCell id="bcBHPsa9riKOSC_5PZo1-71" value="" style="endArrow=classic;html=1;rounded=0;" parent="1" edge="1">
          <mxGeometry width="50" height="50" relative="1" as="geometry">
            <mxPoint x="1210" y="740" as="sourcePoint" />
            <mxPoint x="1210" y="780" as="targetPoint" />
          </mxGeometry>
        </mxCell>
      </root>
    </mxGraphModel>
  </diagram>
</mxfile>
